<?xml version="1.0"?>
<svg xmlns="http://www.w3.org/2000/svg" xmlns:xlink="http://www.w3.org/1999/xlink" version="1.1" width="512px" height="512px" viewBox="0 0 16 16"><g><path fill="#E74C3C" d="M8 1c3.9 0 7 3.1 7 7s-3.1 7-7 7-7-3.1-7-7 3.1-7 7-7zM8 0c-4.4 0-8 3.6-8 8s3.6 8 8 8 8-3.6 8-8-3.6-8-8-8v0z" data-original="#444444" class="active-path" data-old_color="#444444"/><path fill="#E74C3C" d="M7 6c0 0.552-0.448 1-1 1s-1-0.448-1-1c0-0.552 0.448-1 1-1s1 0.448 1 1z" data-original="#444444" class="active-path" data-old_color="#444444"/><path fill="#E74C3C" d="M11 6c0 0.552-0.448 1-1 1s-1-0.448-1-1c0-0.552 0.448-1 1-1s1 0.448 1 1z" data-original="#444444" class="active-path" data-old_color="#444444"/><path fill="#E74C3C" d="M11.3 12.3c-0.7-1.1-2-1.8-3.3-1.8s-2.6 0.7-3.3 1.8l-0.8-0.6c0.9-1.4 2.4-2.2 4.1-2.2s3.2 0.8 4.1 2.2l-0.8 0.6z" data-original="#444444" class="active-path" data-old_color="#444444"/></g> </svg>
